<?xml version="1.0" standalone="no"?>
<!DOCTYPE svg PUBLIC "-//W3C//DTD SVG 20010904//EN"
 "http://www.w3.org/TR/2001/REC-SVG-20010904/DTD/svg10.dtd">
<svg version="1.0" xmlns="http://www.w3.org/2000/svg"
 width="301.000000pt" height="381.000000pt" viewBox="0 0 301.000000 381.000000"
 preserveAspectRatio="xMidYMid meet">
<metadata>
Created by potrace 1.16, written by Peter Selinger 2001-2019
</metadata>
<g transform="translate(0.000000,381.000000) scale(0.100000,-0.100000)"
fill="#000000" stroke="none">
<path d="M0 1905 l0 -1905 1505 0 1505 0 0 1905 0 1905 -1505 0 -1505 0 0
-1905z m3000 0 l0 -1895 -1495 0 -1495 0 0 1895 0 1895 1495 0 1495 0 0 -1895z"/>
<path d="M900 3310 l0 -400 -400 0 -400 0 0 -505 0 -505 400 0 400 0 0 -900 0
-900 605 0 605 0 0 900 0 900 400 0 400 0 0 505 0 505 -400 0 -400 0 0 400 0
400 -605 0 -605 0 0 -400z m1200 -5 l0 -395 -595 0 -595 0 0 395 0 395 595 0
595 0 0 -395z m-1200 -900 l0 -495 -395 0 -395 0 0 495 0 495 395 0 395 0 0
-495z m1200 0 l0 -495 -595 0 -595 0 0 495 0 495 595 0 595 0 0 -495z m800 0
l0 -495 -395 0 -395 0 0 495 0 495 395 0 395 0 0 -495z m-800 -900 l0 -395
-595 0 -595 0 0 395 0 395 595 0 595 0 0 -395z m0 -900 l0 -495 -595 0 -595 0
0 495 0 495 595 0 595 0 0 -495z"/>
</g>
</svg>
